<svg width="16" height="16" viewBox="0 0 16 16" fill="none" xmlns="http://www.w3.org/2000/svg">
<path d="M13.9197 4.47661C13.4383 4.00098 12.7898 3.73293 12.113 3.72995H11.1664C11.0267 3.72971 10.8926 3.67466 10.793 3.57661L10.0264 2.80995C9.73946 2.52432 9.35123 2.36375 8.94638 2.36328H7.05304C6.64819 2.36375 6.25996 2.52432 5.97304 2.80995L5.20638 3.57661C5.10682 3.67466 4.97277 3.72971 4.83304 3.72995H3.88638C3.55026 3.72906 3.21729 3.79472 2.90667 3.92315C2.59605 4.05157 2.31393 4.24021 2.07656 4.47819C1.8392 4.71617 1.6513 4.99879 1.52369 5.30974C1.39607 5.62069 1.33128 5.95383 1.33304 6.28995V11.0833C1.33216 11.4188 1.39761 11.7513 1.52561 12.0614C1.65362 12.3716 1.84166 12.6534 2.07894 12.8907C2.31621 13.128 2.59804 13.316 2.90822 13.444C3.2184 13.5721 3.55082 13.6375 3.88638 13.6366H12.113C12.79 13.6351 13.4391 13.3668 13.9197 12.8899C14.157 12.6528 14.3452 12.3712 14.4733 12.0611C14.6014 11.7511 14.6671 11.4188 14.6664 11.0833V6.28995C14.6672 5.95345 14.6017 5.6201 14.4736 5.30895C14.3454 4.9978 14.1572 4.71496 13.9197 4.47661ZM7.97304 10.7966C7.48782 10.7966 7.01349 10.6527 6.61004 10.3832C6.2066 10.1136 5.89215 9.73042 5.70646 9.28213C5.52077 8.83384 5.47219 8.34056 5.56685 7.86466C5.66151 7.38876 5.89517 6.95162 6.23827 6.60851C6.58138 6.26541 7.01852 6.03175 7.49442 5.93709C7.97032 5.84243 8.4636 5.89101 8.91189 6.0767C9.36018 6.26238 9.74334 6.57683 10.0129 6.98028C10.2825 7.38373 10.4264 7.85806 10.4264 8.34328C10.4246 8.9934 10.1656 9.6164 9.70587 10.0761C9.24616 10.5358 8.62317 10.7949 7.97304 10.7966Z" fill="#111111"/>
</svg>
