<svg width="24" height="24" viewBox="0 0 24 24" fill="none" xmlns="http://www.w3.org/2000/svg">
<circle cx="12" cy="12" r="10" fill="url(#paint0_linear_423_1429)"/>
<path d="M11.9902 14.9619C12.5585 14.962 13.0876 15.4024 13.0879 16.0195C13.0879 16.6373 12.5486 17.079 11.9902 17.0791C11.4213 17.0791 10.8916 16.6277 10.8916 16.0195C10.8919 15.4115 11.4118 14.9619 11.9902 14.9619ZM11.9805 6.88281C12.5295 6.88301 12.9509 7.27539 12.9316 7.81445L12.7939 12.6475C12.7743 13.1766 12.4801 13.4707 11.9902 13.4707C11.4704 13.4706 11.1861 13.1663 11.166 12.6465L11.0293 7.80469C11.0096 7.26507 11.4216 6.88281 11.9805 6.88281Z" fill="#ED3437"/>
<defs>
<linearGradient id="paint0_linear_423_1429" x1="12" y1="2" x2="12" y2="22" gradientUnits="userSpaceOnUse">
<stop stop-color="#DFE2EA"/>
<stop offset="1" stop-color="#C7CEE0"/>
</linearGradient>
</defs>
</svg>
