<svg width="11" height="14" viewBox="0 0 11 14" fill="none" xmlns="http://www.w3.org/2000/svg">
<path d="M8.25 5.22115H8.625C8.92337 5.22115 9.20952 5.34272 9.4205 5.55911C9.63147 5.7755 9.75 6.06898 9.75 6.375L9.75 11.5962C9.75 11.9022 9.63147 12.1957 9.4205 12.412C9.20952 12.6284 8.92337 12.75 8.625 12.75H1.875C1.57663 12.75 1.29048 12.6284 1.07951 12.412C0.868527 12.1957 0.750001 11.9022 0.750001 11.5962L0.75 6.375C0.75 6.06898 0.868527 5.7755 1.07951 5.55911C1.29048 5.34272 1.57663 5.22115 1.875 5.22115H2.25M7.5 3.05769L5.25 0.75M5.25 0.75L3 3.05769M5.25 0.75L5.25 8.25" stroke="#111111" stroke-width="1.5" stroke-linecap="round" stroke-linejoin="round"/>
</svg>
