<svg width="10" height="10" viewBox="0 0 10 10" fill="none" xmlns="http://www.w3.org/2000/svg">
<path fill-rule="evenodd" clip-rule="evenodd" d="M3.33333 1.11111C3.33333 0.816426 3.4504 0.533811 3.65877 0.325437C3.86714 0.117063 4.14976 0 4.44444 0H5.55556C5.85024 0 6.13286 0.117063 6.34123 0.325437C6.5496 0.533811 6.66667 0.816426 6.66667 1.11111V3.33333H8.88889C9.18357 3.33333 9.46619 3.4504 9.67456 3.65877C9.88294 3.86714 10 4.14976 10 4.44444V5.55556C10 5.85024 9.88294 6.13286 9.67456 6.34123C9.46619 6.5496 9.18357 6.66667 8.88889 6.66667H6.66667V8.88889C6.66667 9.18357 6.5496 9.46619 6.34123 9.67456C6.13286 9.88294 5.85024 10 5.55556 10H4.44444C4.14976 10 3.86714 9.88294 3.65877 9.67456C3.4504 9.46619 3.33333 9.18357 3.33333 8.88889V6.66667H1.11111C0.816426 6.66667 0.533811 6.5496 0.325437 6.34123C0.117063 6.13286 0 5.85024 0 5.55556V4.44444C0 4.14976 0.117063 3.86714 0.325437 3.65877C0.533811 3.4504 0.816426 3.33333 1.11111 3.33333H3.33333V1.11111Z" fill="#16948E"/>
</svg>
