<svg width="14" height="12" viewBox="0 0 14 12" fill="none" xmlns="http://www.w3.org/2000/svg">
<path d="M12.5867 2.11333C12.1053 1.6377 11.4567 1.36965 10.78 1.36667H9.83337C9.69364 1.36643 9.55959 1.31137 9.46004 1.21333L8.69337 0.446667C8.40645 0.161038 8.01822 0.000472538 7.61337 0H5.72004C5.31518 0.000472538 4.92695 0.161038 4.64004 0.446667L3.87337 1.21333C3.77381 1.31137 3.63976 1.36643 3.50004 1.36667H2.55337C2.21725 1.36578 1.88428 1.43144 1.57366 1.55986C1.26304 1.68829 0.980918 1.87693 0.743555 2.11491C0.506193 2.35289 0.318289 2.63551 0.190678 2.94646C0.0630669 3.25741 -0.001726 3.59055 3.49535e-05 3.92667V8.72C-0.000844619 9.05556 0.0645989 9.38798 0.192604 9.69816C0.32061 10.0083 0.508653 10.2902 0.745928 10.5274C0.983202 10.7647 1.26503 10.9528 1.57521 11.0808C1.88539 11.2088 2.21781 11.2742 2.55337 11.2733H10.78C11.457 11.2718 12.1061 11.0035 12.5867 10.5267C12.824 10.2895 13.0122 10.0079 13.1403 9.69783C13.2684 9.38779 13.334 9.05548 13.3334 8.72V3.92667C13.3342 3.59017 13.2687 3.25682 13.1406 2.94567C13.0124 2.63452 12.8242 2.35168 12.5867 2.11333ZM6.64004 8.43333C6.15481 8.43333 5.68048 8.28945 5.27704 8.01987C4.87359 7.7503 4.55914 7.36714 4.37345 6.91885C4.18776 6.47056 4.13918 5.97728 4.23384 5.50138C4.3285 5.02548 4.56216 4.58834 4.90527 4.24523C5.24837 3.90213 5.68551 3.66847 6.16141 3.57381C6.63731 3.47914 7.1306 3.52773 7.57889 3.71342C8.02717 3.8991 8.41033 4.21355 8.67991 4.617C8.94948 5.02045 9.09337 5.49478 9.09337 5.98C9.09161 6.63012 8.83257 7.25312 8.37286 7.71283C7.91315 8.17253 7.29016 8.43157 6.64004 8.43333Z" fill="#111111"/>
</svg>
